<mxfile host="app.diagrams.net" modified="2024-01-22T22:10:55.795Z" agent="Mozilla/5.0 (Windows NT 10.0; Win64; x64) AppleWebKit/537.36 (KHTML, like Gecko) Chrome/120.0.0.0 Safari/537.36" etag="VpOcqW_nAMAU5oeqwQMo" version="22.1.21" type="device">
  <diagram name="Page-1" id="b7Yl-TGpxWSowQL5x0IB">
    <mxGraphModel dx="1000" dy="1699" grid="1" gridSize="10" guides="1" tooltips="1" connect="1" arrows="1" fold="1" page="1" pageScale="1" pageWidth="827" pageHeight="1169" math="0" shadow="0">
      <root>
        <mxCell id="0" />
        <mxCell id="1" parent="0" />
        <mxCell id="cLyvATKHJ1fpC_0-l8Fq-1" value="" style="verticalAlign=top;align=left;spacingTop=8;spacingLeft=2;spacingRight=12;shape=cube;size=10;direction=south;fontStyle=4;html=1;whiteSpace=wrap;sketch=1;curveFitting=1;jiggle=2;fillColor=#ffe6cc;strokeColor=#d79b00;" vertex="1" parent="1">
          <mxGeometry x="120" y="-490" width="570" height="1030" as="geometry" />
        </mxCell>
        <mxCell id="cLyvATKHJ1fpC_0-l8Fq-40" value="" style="verticalAlign=top;align=left;spacingTop=8;spacingLeft=2;spacingRight=12;shape=cube;size=10;direction=south;fontStyle=4;html=1;whiteSpace=wrap;sketch=1;curveFitting=1;jiggle=2;fillColor=#ffe6cc;strokeColor=#d79b00;" vertex="1" parent="1">
          <mxGeometry x="970" y="190" width="230" height="140" as="geometry" />
        </mxCell>
        <mxCell id="cLyvATKHJ1fpC_0-l8Fq-15" value="" style="verticalAlign=top;align=left;spacingTop=8;spacingLeft=2;spacingRight=12;shape=cube;size=10;direction=south;fontStyle=4;html=1;whiteSpace=wrap;sketch=1;curveFitting=1;jiggle=2;fillColor=#ffe6cc;strokeColor=#d79b00;" vertex="1" parent="1">
          <mxGeometry x="970" y="-250" width="230" height="140" as="geometry" />
        </mxCell>
        <mxCell id="cLyvATKHJ1fpC_0-l8Fq-2" value="" style="verticalAlign=top;align=left;spacingTop=8;spacingLeft=2;spacingRight=12;shape=cube;size=10;direction=south;fontStyle=4;html=1;whiteSpace=wrap;sketch=1;curveFitting=1;jiggle=2;fillColor=#ffe6cc;strokeColor=#d79b00;" vertex="1" parent="1">
          <mxGeometry x="170" y="-410" width="460" height="890" as="geometry" />
        </mxCell>
        <mxCell id="cLyvATKHJ1fpC_0-l8Fq-3" value="" style="verticalAlign=top;align=left;spacingTop=8;spacingLeft=2;spacingRight=12;shape=cube;size=10;direction=south;fontStyle=4;html=1;whiteSpace=wrap;sketch=1;curveFitting=1;jiggle=2;fillColor=#ffe6cc;strokeColor=#d79b00;" vertex="1" parent="1">
          <mxGeometry x="230" y="-340" width="330" height="750" as="geometry" />
        </mxCell>
        <mxCell id="cLyvATKHJ1fpC_0-l8Fq-6" value="&amp;lt;&amp;lt;ApplicationServer&amp;gt;&amp;gt;&lt;br&gt;HotelManagementServer" style="html=1;whiteSpace=wrap;strokeColor=#000000;sketch=1;curveFitting=1;jiggle=2;shadow=1;" vertex="1" parent="1">
          <mxGeometry x="290" y="-320" width="220" height="50" as="geometry" />
        </mxCell>
        <mxCell id="cLyvATKHJ1fpC_0-l8Fq-16" value="&amp;lt;&amp;lt;PrinterServer&amp;gt;&amp;gt;&lt;br&gt;Client Printer" style="html=1;whiteSpace=wrap;strokeColor=#000000;rounded=0;sketch=1;curveFitting=1;jiggle=2;shadow=1;" vertex="1" parent="1">
          <mxGeometry x="1005" y="-220" width="160" height="50" as="geometry" />
        </mxCell>
        <mxCell id="cLyvATKHJ1fpC_0-l8Fq-4" value="&amp;lt;&amp;lt;ClientWorkStation&amp;gt;&amp;gt;&lt;br&gt;PC" style="html=1;whiteSpace=wrap;strokeColor=#000000;sketch=1;curveFitting=1;jiggle=2;shadow=1;" vertex="1" parent="1">
          <mxGeometry x="310" y="-470" width="190" height="40" as="geometry" />
        </mxCell>
        <mxCell id="cLyvATKHJ1fpC_0-l8Fq-5" value="&amp;lt;&amp;lt;OS&amp;gt;&amp;gt;&lt;br&gt;Windows&amp;nbsp; 8" style="html=1;whiteSpace=wrap;strokeColor=#0d0c0c;sketch=1;curveFitting=1;jiggle=2;shadow=1;" vertex="1" parent="1">
          <mxGeometry x="325" y="-390" width="150" height="30" as="geometry" />
        </mxCell>
        <mxCell id="cLyvATKHJ1fpC_0-l8Fq-19" value="DatabaseServer" style="html=1;whiteSpace=wrap;strokeColor=#000000;sketch=1;curveFitting=1;jiggle=2;shadow=1;" vertex="1" parent="1">
          <mxGeometry x="1020" y="220" width="130" height="50" as="geometry" />
        </mxCell>
        <mxCell id="cLyvATKHJ1fpC_0-l8Fq-20" value="&lt;br&gt;&lt;b&gt;&lt;br&gt;&amp;nbsp; &amp;nbsp; &amp;nbsp; &amp;nbsp; &amp;nbsp; &amp;nbsp; &amp;nbsp; &amp;nbsp; &amp;nbsp; Guest&lt;/b&gt;" style="align=left;overflow=fill;html=1;dropTarget=0;whiteSpace=wrap;sketch=1;curveFitting=1;jiggle=2;shadow=1;" vertex="1" parent="1">
          <mxGeometry x="250" y="-250" width="150" height="60" as="geometry" />
        </mxCell>
        <mxCell id="cLyvATKHJ1fpC_0-l8Fq-21" value="" style="shape=component;jettyWidth=8;jettyHeight=4;" vertex="1" parent="cLyvATKHJ1fpC_0-l8Fq-20">
          <mxGeometry x="1" width="20" height="20" relative="1" as="geometry">
            <mxPoint x="-24" y="4" as="offset" />
          </mxGeometry>
        </mxCell>
        <mxCell id="cLyvATKHJ1fpC_0-l8Fq-23" value="&lt;br&gt;&lt;b&gt;&lt;br&gt;&amp;nbsp; &amp;nbsp; &amp;nbsp;Employee&lt;br&gt;&lt;/b&gt;" style="align=left;overflow=fill;html=1;dropTarget=0;whiteSpace=wrap;sketch=1;curveFitting=1;jiggle=2;shadow=1;" vertex="1" parent="1">
          <mxGeometry x="250" y="-170" width="150" height="60" as="geometry" />
        </mxCell>
        <mxCell id="cLyvATKHJ1fpC_0-l8Fq-24" value="" style="shape=component;jettyWidth=8;jettyHeight=4;" vertex="1" parent="cLyvATKHJ1fpC_0-l8Fq-23">
          <mxGeometry x="1" width="20" height="20" relative="1" as="geometry">
            <mxPoint x="-24" y="4" as="offset" />
          </mxGeometry>
        </mxCell>
        <mxCell id="cLyvATKHJ1fpC_0-l8Fq-25" value="&lt;b&gt;&lt;br&gt;Room &amp;amp; Rom&lt;br&gt;Services&lt;/b&gt;" style="align=left;overflow=fill;html=1;dropTarget=0;whiteSpace=wrap;sketch=1;curveFitting=1;jiggle=2;shadow=1;" vertex="1" parent="1">
          <mxGeometry x="250" y="-90" width="180" height="60" as="geometry" />
        </mxCell>
        <mxCell id="cLyvATKHJ1fpC_0-l8Fq-26" value="" style="shape=component;jettyWidth=8;jettyHeight=4;" vertex="1" parent="cLyvATKHJ1fpC_0-l8Fq-25">
          <mxGeometry x="1" width="20" height="20" relative="1" as="geometry">
            <mxPoint x="-24" y="4" as="offset" />
          </mxGeometry>
        </mxCell>
        <mxCell id="cLyvATKHJ1fpC_0-l8Fq-27" value="&lt;br&gt;&lt;br&gt;&amp;nbsp; &amp;nbsp; &lt;b&gt;Inventory&lt;/b&gt;" style="align=left;overflow=fill;html=1;dropTarget=0;whiteSpace=wrap;sketch=1;curveFitting=1;jiggle=2;shadow=1;" vertex="1" parent="1">
          <mxGeometry x="250" y="-5" width="150" height="60" as="geometry" />
        </mxCell>
        <mxCell id="cLyvATKHJ1fpC_0-l8Fq-28" value="" style="shape=component;jettyWidth=8;jettyHeight=4;" vertex="1" parent="cLyvATKHJ1fpC_0-l8Fq-27">
          <mxGeometry x="1" width="20" height="20" relative="1" as="geometry">
            <mxPoint x="-24" y="4" as="offset" />
          </mxGeometry>
        </mxCell>
        <mxCell id="cLyvATKHJ1fpC_0-l8Fq-29" value="&lt;br&gt;&lt;b&gt;&lt;br&gt;&amp;nbsp; &amp;nbsp;Restaurant&lt;br&gt;&lt;/b&gt;" style="align=left;overflow=fill;html=1;dropTarget=0;whiteSpace=wrap;sketch=1;curveFitting=1;jiggle=2;shadow=1;" vertex="1" parent="1">
          <mxGeometry x="250" y="80" width="150" height="60" as="geometry" />
        </mxCell>
        <mxCell id="cLyvATKHJ1fpC_0-l8Fq-30" value="" style="shape=component;jettyWidth=8;jettyHeight=4;" vertex="1" parent="cLyvATKHJ1fpC_0-l8Fq-29">
          <mxGeometry x="1" width="20" height="20" relative="1" as="geometry">
            <mxPoint x="-24" y="4" as="offset" />
          </mxGeometry>
        </mxCell>
        <mxCell id="cLyvATKHJ1fpC_0-l8Fq-31" value="&lt;br&gt;&amp;nbsp;&lt;br&gt;&amp;nbsp; &amp;nbsp; &amp;nbsp; &amp;nbsp; &amp;nbsp; &amp;nbsp; &amp;nbsp; &lt;b&gt;Spa&lt;/b&gt;" style="align=left;overflow=fill;html=1;dropTarget=0;whiteSpace=wrap;sketch=1;curveFitting=1;jiggle=2;shadow=1;" vertex="1" parent="1">
          <mxGeometry x="250" y="160" width="150" height="60" as="geometry" />
        </mxCell>
        <mxCell id="cLyvATKHJ1fpC_0-l8Fq-32" value="" style="shape=component;jettyWidth=8;jettyHeight=4;" vertex="1" parent="cLyvATKHJ1fpC_0-l8Fq-31">
          <mxGeometry x="1" width="20" height="20" relative="1" as="geometry">
            <mxPoint x="-24" y="4" as="offset" />
          </mxGeometry>
        </mxCell>
        <mxCell id="cLyvATKHJ1fpC_0-l8Fq-33" value="&lt;br&gt;&amp;nbsp; &amp;nbsp; &amp;nbsp; &lt;b&gt;&amp;nbsp; Transport &amp;amp;&lt;br&gt;&amp;nbsp; &amp;nbsp; &amp;nbsp;entertainment&lt;/b&gt;" style="align=left;overflow=fill;html=1;dropTarget=0;whiteSpace=wrap;sketch=1;curveFitting=1;jiggle=2;shadow=1;" vertex="1" parent="1">
          <mxGeometry x="250" y="250" width="180" height="60" as="geometry" />
        </mxCell>
        <mxCell id="cLyvATKHJ1fpC_0-l8Fq-34" value="" style="shape=component;jettyWidth=8;jettyHeight=4;" vertex="1" parent="cLyvATKHJ1fpC_0-l8Fq-33">
          <mxGeometry x="1" width="20" height="20" relative="1" as="geometry">
            <mxPoint x="-24" y="4" as="offset" />
          </mxGeometry>
        </mxCell>
        <mxCell id="cLyvATKHJ1fpC_0-l8Fq-36" value="&amp;nbsp;&lt;br&gt;&lt;br&gt;&amp;nbsp; &amp;nbsp; &amp;nbsp; &amp;nbsp; &amp;nbsp; &lt;b&gt;Accounts&lt;/b&gt;" style="align=left;overflow=fill;html=1;dropTarget=0;whiteSpace=wrap;sketch=1;curveFitting=1;jiggle=2;shadow=1;" vertex="1" parent="1">
          <mxGeometry x="250" y="330" width="150" height="60" as="geometry" />
        </mxCell>
        <mxCell id="cLyvATKHJ1fpC_0-l8Fq-37" value="" style="shape=component;jettyWidth=8;jettyHeight=4;" vertex="1" parent="cLyvATKHJ1fpC_0-l8Fq-36">
          <mxGeometry x="1" width="20" height="20" relative="1" as="geometry">
            <mxPoint x="-24" y="4" as="offset" />
          </mxGeometry>
        </mxCell>
        <mxCell id="cLyvATKHJ1fpC_0-l8Fq-46" value="" style="line;strokeWidth=1;fillColor=none;align=left;verticalAlign=middle;spacingTop=-1;spacingLeft=3;spacingRight=3;rotatable=0;labelPosition=right;points=[];portConstraint=eastwest;strokeColor=inherit;" vertex="1" parent="1">
          <mxGeometry x="560" y="-190" width="410" height="8" as="geometry" />
        </mxCell>
        <mxCell id="cLyvATKHJ1fpC_0-l8Fq-47" value="" style="line;strokeWidth=1;fillColor=none;align=left;verticalAlign=middle;spacingTop=-1;spacingLeft=3;spacingRight=3;rotatable=0;labelPosition=right;points=[];portConstraint=eastwest;strokeColor=inherit;" vertex="1" parent="1">
          <mxGeometry x="560" y="270" width="410" height="8" as="geometry" />
        </mxCell>
      </root>
    </mxGraphModel>
  </diagram>
</mxfile>
